<svg xmlns="http://www.w3.org/2000/svg" viewBox="0 0 418.86 509"><defs><style>.cls-1{fill:#6ad7e5;}.cls-1,.cls-2,.cls-3,.cls-4,.cls-6,.cls-7{fill-rule:evenodd;}.cls-3{fill:#f6d2a2;}.cls-4{fill:#c6b198;}.cls-4,.cls-5{stroke:#000;stroke-width:3px;}.cls-5{fill:none;}.cls-6{fill:#fff;}.cls-7{fill:#231f20;}.cls-8{fill:#61dafb;}.cls-9{fill:#599636;}.cls-10{fill:#6cac48;}.cls-11{fill:#c2bfbf;}</style></defs><g id="Layer_2" data-name="Layer 2"><g id="Layer_1-2" data-name="Layer 1"><g id="Page-1"><g id="Artboard-3"><g id="Group"><path id="Shape" class="cls-1" d="M68.56,98.11c-60-16.11-15.39-89,32.79-59l-32.79,59Z"/><path id="Shape-2" data-name="Shape" class="cls-1" d="M335.35,33.21c47.49-31.86,90.41,40,35.21,58.11L335.35,33.21Z"/><path id="Shape-3" data-name="Shape" class="cls-2" d="M71.54,77.87c-7.92-4-13.73-9.43-8.88-18.17,4.48-8.1,12.81-7.22,20.72-3.22L71.54,77.87Z"/><path id="Shape-4" data-name="Shape" class="cls-2" d="M358.51,69.78c7.92-4,13.73-9.43,8.88-18.18-4.48-8.1-12.81-7.22-20.72-3.22l11.84,21.4Z"/><path id="Shape-5" data-name="Shape" class="cls-2" d="M389.43,44.65C400,62.16,393.37,81.49,369.8,89.21l2.79,1L337.37,32.1,336.7,35C357,21.4,378.85,27,389.43,44.65ZM332.25,32.56l1.08,1.77,35.21,58.11,1,1.59,1.82-.6c26.45-8.66,34.11-31.13,22.17-51s-36.81-26.25-59.48-11Z"/><path id="Shape-6" data-name="Shape" class="cls-2" d="M46.43,52.4c10.48-17.87,33-24.31,53.65-11.45L99.29,38l-32.8,59L69.19,96C43.58,89.09,36,70.26,46.43,52.4Zm23.31,48.35.88-1.59,32.8-59,1-1.8-1.79-1.11c-23-14.33-48.53-7-60.28,13-11.93,20.34-3,42.37,25.58,50Z"/><path id="Shape-7" data-name="Shape" class="cls-3" d="M32,275.52c.76,15,16.42,8.05,23.51,3.37,6.73-4.45,8.7-.75,9.29-9.52.39-5.76,1.08-11.53.74-17.31-10.18-.88-21.25,1.43-29.6,7.22-4.3,3-12.36,12.51-3.94,16.24"/><path id="Shape-8" data-name="Shape" class="cls-4" d="M32.59,275.47c2.28-.81,4.7-1.39,6.24-3.35"/><path id="Shape-9" data-name="Shape" class="cls-2" d="M41.63,286.8c4.73-.43,10.43-2.9,15.24-6.08a17.38,17.38,0,0,1,3-1.62c.39-.16.77-.3,1.23-.45l1.16-.39c3.42-1.21,4.48-3.11,4.86-8.75.07-1.09.14-2,.3-3.93a91.11,91.11,0,0,0,.44-13.65L67.79,250l-2-.18c-11.16-1-22.67,1.74-31.18,7.65a24.22,24.22,0,0,0-7.5,8.73C24.89,271,26,275.29,31,277.55l2-4.05c-2.51-1.11-2.92-2.76-1.65-5.47a19.76,19.76,0,0,1,6-6.94c7.56-5.25,17.93-7.68,28-6.81l-2.13-2.1a85.19,85.19,0,0,1-.44,13.06c-.15,2-.22,2.88-.3,4-.27,4.06-.44,4.36-1.8,4.84l-1.12.37c-.55.19-1,.36-1.49.56a21.38,21.38,0,0,0-3.87,2.05c-4.21,2.78-9.24,5-13,5.3-4.32.4-6.55-1.43-6.83-6.93l-4.67.21C30.1,283.69,34.67,287.43,41.63,286.8Z"/><path id="Shape-10" data-name="Shape" class="cls-4" d="M32.59,275.47c2.28-.81,4.7-1.39,6.24-3.35"/><path id="Shape-11" data-name="Shape" class="cls-3" d="M346.15,459.69c12.06,7.13,34.11,28.68,16,39.14-17.39,15.2-27.12-16.7-42.38-21.11,6.57-8.53,14.9-16.3,26.36-18Z"/><path id="Shape-12" data-name="Shape" class="cls-2" d="M363.46,479.16c4.89,7.79,4.41,13.76-2.5,17.76l-.2.11-.17.15c-7.24,6.33-12.18,4.27-21.78-6.36l-1-1.1-1-1.11c-7.32-8.2-11.06-11.49-16.37-13l1.2,3.46c7.67-10,15.44-15.73,24.85-17.15l-1.6-.31C351.63,465.55,359.38,472.64,363.46,479.16Zm-16.82-21.81-.85.13c-10.86,1.64-19.56,8.11-27.89,18.91L316,478.93l3.16.92c4.1,1.19,7.48,4.16,14.17,11.66.5.55.76.85,1,1.11l1,1.11c5.15,5.71,8.49,8.66,12.43,10.3,5.32,2.22,10.67,1.14,16.05-3.56l-.37.26c9.47-5.46,10.17-14.19,4.1-23.87-4.5-7.16-12.78-14.75-20.1-19.07Z"/><path id="Shape-13" data-name="Shape" class="cls-2" d="M361.81,493.34l-.1-.26c-2.2-5.64-3.52-8.12-6.35-10.71l-3.24,3.22c2.16,2,3.25,4,5.21,9.05l.1.26a50.77,50.77,0,0,0,2.28,5.23l4.18-2A45,45,0,0,1,361.81,493.34Z"/><path id="Shape-14" data-name="Shape" class="cls-3" d="M129.57,483.91c-14.16,2.1-22.13,14.3-33.93,20.49-11.13,6.34-15.38-2-16.38-3.72-1.75-.76-1.6.7-4.29-1.88-10.31-15.55,10.74-26.91,21.71-34.63,15.27-2.95,24.84,9.7,32.89,19.74Z"/><path id="Shape-15" data-name="Shape" class="cls-2" d="M106.54,493.86l-.3.25c-5.6,4.57-8.24,6.51-11.73,8.34C89,505.6,85.6,505,83,502.11a12.53,12.53,0,0,1-1.06-1.4c-.13-.2-.25-.4-.38-.62s-.25-.44-.29-.51l-.38-.63-.69-.3a4.93,4.93,0,0,0-2.4-.45,5.61,5.61,0,0,1-1.2-1l.32.38c-5.72-8.61-1.3-16,11.92-25.35,1.85-1.31,8.13-5.53,9.2-6.29l-.93.4c10-1.93,17.36,2.76,27,14.52.55.67,1.12,1.36,1.79,2.21.37.45,1.6,2,1.75,2.18l1.5-3.56C121.33,482.87,116.29,485.91,106.54,493.86Zm27.28-8.32-2.39-3-1.76-2.19c-.68-.86-1.26-1.56-1.82-2.25-10.66-13-19.39-18.5-31.64-16.14l-.5.1-.42.29c-1,.72-7.3,4.94-9.21,6.3-6.56,4.66-10.94,8.68-13.62,13.14-3.53,5.88-3.56,12,.53,18.18l.14.21.18.17c1.79,1.72,3,2.32,4.5,2.29.38,0,.34,0,.48,0l1-2-2,1.09.29.51c.16.27.31.51.48.77a15.58,15.58,0,0,0,1.49,2c4,4.48,9.89,5.56,17.36,1.31,3.78-2,6.6-4.05,12.43-8.82l.31-.25c9.11-7.43,13.61-10.14,20.35-11.13Z"/><path id="Shape-16" data-name="Shape" class="cls-5" d="M79.28,501.57c.54-5.92,5.46-9.89,7.8-14.9"/><path id="Shape-17" data-name="Shape" class="cls-3" d="M412.84,274.18c-.76,15-16.42,8-23.51,3.36-6.73-4.44-8.7-.75-9.29-9.52-.39-5.76-1.08-11.53-.74-17.31,10.18-.88,21.25,1.43,29.6,7.22,4.29,3,12.35,12.51,3.94,16.25"/><path id="Shape-18" data-name="Shape" class="cls-2" d="M403.68,281c-3.78-.34-8.81-2.52-13-5.3a22,22,0,0,0-3.87-2.05c-.48-.2-1-.37-1.49-.56l-1.12-.37c-1.36-.48-1.53-.78-1.81-4.84-.07-1.11-.14-2-.3-4a87.89,87.89,0,0,1-.44-13.06l-2.12,2.1c10.08-.87,20.45,1.56,28,6.81a19.86,19.86,0,0,1,6,6.94c1.26,2.71.86,4.36-1.65,5.47l2,4.05c5.09-2.26,6.15-6.59,3.94-11.34a24.22,24.22,0,0,0-7.5-8.73c-8.52-5.91-20-8.61-31.18-7.65l-2,.18-.11,1.92a89.74,89.74,0,0,0,.44,13.65c.16,2,.22,2.84.3,3.93.38,5.64,1.44,7.54,4.86,8.75l1.16.39c.46.16.84.29,1.22.45a17.45,17.45,0,0,1,3.05,1.62c4.81,3.18,10.51,5.65,15.24,6.08,7,.63,11.53-3.11,11.93-11.17l-4.67-.21C410.22,279.57,408,281.4,403.68,281Z"/><path id="Shape-19" data-name="Shape" class="cls-4" d="M412.33,274.12c-2.28-.81-4.7-1.38-6.24-3.35"/><path id="Shape-20" data-name="Shape" class="cls-1" d="M216.64,2.23c60.06,0,116.37,8.21,145.72,63.33,26.35,61.78,17,128.41,21,193.7,3.45,56.07,11.1,120.85-16.13,172.81C338.58,486.73,267,500.48,208,498.47c-46.32-1.59-102.28-16-128.43-56.45C48.92,394.59,63.44,324.07,65.67,271.3c2.64-62.51-17.73-125.21,3.77-186.38C91.75,21.46,151.9,7.12,216.64,2.23Z"/><path id="Shape-21" data-name="Shape" class="cls-6" d="M227.93,79.35c10.79,59.88,113.26,44,98.54-16.35-13.2-54.15-102.12-39.16-98.54,16.35"/><path id="Shape-22" data-name="Shape" class="cls-2" d="M287.14,118.41c29.63-4.74,48.59-27,41.54-55.9-13.83-56.73-106.76-41.2-103,17l4.53-.27c-3.42-53,81.52-67.18,94.06-15.72,6.41,26.28-10.65,46.3-37.87,50.65s-51.52-9-56.22-35.16l-4.47.73C230.87,108.39,257.65,123.13,287.14,118.41Z"/><path id="Shape-23" data-name="Shape" class="cls-6" d="M104.48,89.36c14,52.13,101.36,38.78,98.06-13.51C198.6,13.22,91.12,25.31,104.48,89.36"/><path id="Shape-24" data-name="Shape" class="cls-2" d="M204.74,75.73C202.85,45.8,177,29.25,146.74,33,116.27,36.81,96,59.33,102.32,89.77l4.32-.82c-5.82-27.88,12.57-48.27,40.67-51.77,27.91-3.48,51.32,11.51,53,38.8,3.15,50.09-80.51,62.2-93.74,12.86l-4.26,1C116.9,144.13,208.21,130.91,204.74,75.73Z"/><path id="Shape-25" data-name="Shape" class="cls-6" d="M240.07,152.33c0,7.79,1.85,16.53.31,24.81-2.08,3.76-6.16,4.15-9.68,5.67a14.15,14.15,0,0,1-10.91-8.13c-1.25-9.45.47-18.6.78-28.06l19.5,5.71Z"/><path id="Shape-26" data-name="Shape" class="cls-2" d="M238.2,160.83c.32,4,.43,5.91.46,8.18a40.24,40.24,0,0,1-.58,7.74l.23-.65c-.94,1.7-2.17,2.41-5.69,3.61l-.34.11c-1.13.39-1.81.64-2.54,1l1.32-.17a11.83,11.83,0,0,1-9.12-6.81l.17.6a66.73,66.73,0,0,1-.19-13.52c.09-1.39.18-2.48.39-5.06.37-4.49.51-6.55.6-9.13l-3,2.06,19.5,5.72-1.65-2.13C237.74,154.64,237.85,156.4,238.2,160.83ZM243,150.68l-1.64-.48-19.5-5.71-2.93-.86-.09,2.92c-.09,2.48-.23,4.5-.59,8.92-.21,2.6-.3,3.7-.39,5.13A70.73,70.73,0,0,0,218,175l0,.31.13.29A16.51,16.51,0,0,0,230.9,185l.69.1.63-.28c.59-.25,1.18-.47,2.2-.81l.33-.12c4.56-1.55,6.6-2.73,8.26-5.73l.17-.31.06-.34a44.22,44.22,0,0,0,.66-8.56c0-2.4-.15-4.4-.47-8.47-.34-4.33-.45-6-.46-8.18Z"/><path id="Shape-27" data-name="Shape" class="cls-6" d="M197.25,150.61c-6.44,14.9,3.59,44.7,21.06,22.72-1.25-9.45.46-18.6.78-28.06l-21.84,5.34Z"/><path id="Shape-28" data-name="Shape" class="cls-2" d="M196.78,176.9c5.38,9.09,14.55,8.91,23.39-2.22l.58-.72-.12-.91a66.73,66.73,0,0,1-.19-13.52c.09-1.39.18-2.48.39-5.06.37-4.49.51-6.55.6-9.13l.1-3-3,.74-21.84,5.34-1.13.28-.45,1C191.66,157.71,192.46,169.61,196.78,176.9Zm1.05-24.13,21.84-5.34-2.92-2.23c-.08,2.48-.22,4.5-.58,8.92-.22,2.6-.3,3.7-.4,5.13a70.66,70.66,0,0,0,.22,14.36l.46-1.63c-6.94,8.73-12,8.83-15.6,2.73s-4.32-16.57-1.44-23.25Z"/><path id="Shape-29" data-name="Shape" class="cls-3" d="M199.48,122.54c-12,1-21.81,14.6-15.57,25.38,8.26,14.28,26.71-1.26,38.19.19,13.22.26,24.05,13.35,34.67,2.37,11.81-12.22-5.09-24.12-18.29-29.43l-39,1.49Z"/><path id="Shape-30" data-name="Shape" class="cls-7" d="M181.87,149a13.48,13.48,0,0,0,11.52,7.21c3.66.2,7.35-.6,13.18-2.49l1.86-.6c7.49-2.48,10.42-3.17,13.36-2.79h.26c3.49.07,6.52.95,12.16,3.2,6.46,2.58,8.55,3.27,11.85,3.51,4.65.34,8.72-1.23,12.43-5.06,6.26-6.48,5.95-13.62.33-20.22-4.27-5-11.53-9.6-19.43-12.78l-.48-.19-.52,0-39,1.49C185.17,121.46,175,137.12,181.87,149Zm56.71-25.73-1-.17c7.25,2.92,13.91,7.12,17.62,11.48,4.23,5,4.44,9.65-.14,14.39-4.85,5-8.23,4.77-19,.46-6.17-2.46-9.62-3.46-13.87-3.55l.26,0c-4-.5-7.22.26-15.51,3l-1.83.6c-10.85,3.51-15.69,3.25-19.11-2.66-5.16-8.91,2.83-21.19,13.72-22.08Z"/><path id="Shape-31" data-name="Shape" class="cls-2" d="M198,121.94c-.89-19.86,38.75-22.34,43.43-5.72s-41.48,20.43-43.43,5.72Z"/><path id="Shape-32" data-name="Shape" class="cls-2" d="M300.2,15.32c26.64,9.43,46.53,25.81,60.08,51.25,8.72,20.48,14,42.66,16.69,68.25,2.07,19.45,2.55,35.21,2.75,70.88,0,5.66,0,8.17.08,11.31.14,17.56.46,30,1.22,42.39.3,4.86.43,6.8,1.21,18.36,1.68,24.77,2.34,37.61,2.45,52.41.32,41.45-5.2,73.53-19.54,100.9-13.11,25-36.1,42.64-66.94,53.35-26.35,9.15-57.67,12.92-90.09,11.82-55.73-1.91-103.92-20.43-126.53-55.39-15.07-23.31-20.12-53-18.72-94,.38-11.22,1.07-21.28,2.59-39.5,1.72-20.69,2.17-26.69,2.56-36,.28-6.66.31-13.55.12-20.85C67.79,237.75,67,227.47,65,204.61c-2.67-30.19-3.48-43.45-3.15-60,.43-21.78,3.43-40.87,9.79-59,10.3-29.29,29.14-49.21,56.5-62,22.89-10.72,50.76-16.3,88.66-19.16C252,4.46,278,7.44,300.2,15.32ZM126.1,19.61C97.65,32.92,77.93,53.76,67.23,84.21c-6.53,18.56-9.6,38.09-10,60.3-.33,16.77.49,30.13,3.17,60.48,2,22.77,2.76,33,3.09,45.66.19,7.21.16,14-.12,20.56C63,280.42,62.5,286.4,60.79,307c-1.52,18.29-2.22,28.4-2.61,39.71C56.76,388.48,61.94,419,77.6,443.19c23.6,36.48,73.21,55.55,130.34,57.51,33,1.12,64.89-2.72,91.86-12.08,31.9-11.08,55.83-29.44,69.52-55.56,14.73-28.1,20.36-60.83,20-102.92-.12-14.92-.78-27.82-2.46-52.67-.78-11.54-.91-13.49-1.21-18.34-.75-12.27-1.08-24.66-1.22-42.16,0-3.13,0-5.64-.07-11.3-.2-35.8-.69-51.66-2.78-71.3-2.76-26-8.1-48.57-17.09-69.65-14.18-26.64-35-43.77-62.7-53.59C279,3,252.55,0,216.64,0,178,2.91,149.63,8.6,126.1,19.61Z"/></g></g></g><path class="cls-8" d="M190.8,77.63c0-5-6.24-9.71-15.81-12.64,2.21-9.75,1.23-17.51-3.1-20a6.62,6.62,0,0,0-3.43-.86v3.31a7.62,7.62,0,0,1,1.87.4c2.09,1.2,3,5.77,2.29,11.65a44.38,44.38,0,0,1-.78,4.53,74.61,74.61,0,0,0-9.77-1.68,76,76,0,0,0-6.41-7.7c5-4.66,13-7.21,13-7.21V44h0c-4.23,0-9.78,3-15.39,8.26-5.61-5.21-11.15-8.2-15.39-8.2V47.6c3.18,0,7.88,2.53,12.88,7.15a73.58,73.58,0,0,0-6.33,7.65,71.8,71.8,0,0,0-9.75,1.69,42.74,42.74,0,0,1-.8-4.45c-.72-5.86.17-10.41,2.24-11.62a3.37,3.37,0,0,1,1.76-.4V44.2h0a6.73,6.73,0,0,0-3.46.86c-4.31,2.48-5.28,10.23-3.06,20-9.54,2.94-15.75,7.65-15.75,12.62s6.24,9.71,15.81,12.64c-2.2,9.75-1.22,17.51,3.1,20a6.8,6.8,0,0,0,3.45.86c4.22,0,9.74-3,15.32-8.22,5.59,5.18,11.11,8.16,15.33,8.16a6.86,6.86,0,0,0,3.46-.86c4.31-2.49,5.28-10.23,3.05-20C184.59,87.32,190.8,82.6,190.8,77.63ZM171,67.37c-.57,2-1.28,4-2.08,6.08-.63-1.24-1.29-2.47-2-3.7s-1.46-2.43-2.22-3.6C166.84,66.47,169,66.87,171,67.37Zm-7.05,16.39c-1.2,2.08-2.43,4-3.71,5.88q-3.44.3-6.95.3c-2.33,0-4.65-.1-6.93-.29q-1.92-2.75-3.72-5.85c-1.17-2-2.23-4.06-3.2-6.12.95-2.06,2-4.13,3.18-6.14s2.43-4.05,3.71-5.88c2.29-.2,4.62-.31,7-.31s4.65.11,6.92.29c1.28,1.83,2.53,3.79,3.73,5.85s2.23,4.06,3.2,6.13C166.13,79.68,165.07,81.74,163.91,83.76Zm5-2A64.71,64.71,0,0,1,171,87.88c-2,.49-4.14.91-6.34,1.23.75-1.18,1.51-2.4,2.21-3.64S168.25,83,168.88,81.76Zm-15.6,16.42c-1.43-1.48-2.86-3.13-4.28-4.93,1.39.06,2.8.11,4.23.11s2.88,0,4.28-.11A60.86,60.86,0,0,1,153.28,98.18Zm-11.45-9.07c-2.19-.32-4.3-.72-6.31-1.21.57-2,1.28-4,2.08-6.08.63,1.23,1.29,2.46,2,3.69S141.07,87.94,141.83,89.11Zm11.37-32A63.24,63.24,0,0,1,157.48,62c-1.38-.06-2.8-.11-4.23-.11s-2.88,0-4.28.11A59,59,0,0,1,153.2,57.09Zm-11.39,9.06c-.75,1.19-1.51,2.4-2.21,3.65s-1.37,2.46-2,3.69a64.71,64.71,0,0,1-2.13-6.12C137.49,66.89,139.61,66.47,141.81,66.15ZM127.88,85.42c-5.44-2.32-9-5.37-9-7.79s3.53-5.48,9-7.79c1.33-.56,2.77-1.07,4.27-1.55a72.4,72.4,0,0,0,3.46,9.37A73.57,73.57,0,0,0,132.19,87C130.67,86.51,129.22,86,127.88,85.42Zm8.28,22c-2.09-1.2-3-5.77-2.29-11.65.17-1.44.45-3,.79-4.52a72.73,72.73,0,0,0,9.77,1.67,74.89,74.89,0,0,0,6.4,7.7c-5,4.66-9.73,7.22-12.93,7.22A3.79,3.79,0,0,1,136.16,107.41Zm36.51-11.72c.72,5.87-.17,10.45-2.25,11.66a3.39,3.39,0,0,1-1.77.4c-3.18,0-7.91-2.54-12.92-7.17a71.87,71.87,0,0,0,6.35-7.68,72.7,72.7,0,0,0,9.79-1.69A43.74,43.74,0,0,1,172.67,95.69Zm5.93-10.27A45.26,45.26,0,0,1,174.33,87a73.5,73.5,0,0,0-3.46-9.37,73,73,0,0,0,3.42-9.33c1.52.48,3,1,4.32,1.57,5.45,2.33,9,5.38,9,7.79S184,83.11,178.6,85.42Z"/><circle class="cls-8" cx="153.23" cy="77.63" r="7.03"/><path class="cls-8" d="M316.8,75.63c0-5-6.24-9.71-15.81-12.64,2.21-9.75,1.23-17.51-3.1-20a6.62,6.62,0,0,0-3.43-.86v3.31a7.62,7.62,0,0,1,1.87.4c2.09,1.2,3,5.77,2.29,11.65a44.38,44.38,0,0,1-.78,4.53,74.61,74.61,0,0,0-9.77-1.68,76,76,0,0,0-6.41-7.7c5-4.66,12.95-7.21,12.95-7.21V42h0c-4.23,0-9.78,3-15.39,8.26-5.61-5.21-11.15-8.2-15.39-8.2V45.6c3.18,0,7.88,2.53,12.88,7.15a73.58,73.58,0,0,0-6.33,7.65,71.8,71.8,0,0,0-9.75,1.69,42.74,42.74,0,0,1-.8-4.45c-.72-5.86.17-10.41,2.24-11.62a3.37,3.37,0,0,1,1.76-.4V42.2h0a6.73,6.73,0,0,0-3.46.86c-4.31,2.48-5.28,10.23-3.06,19.95-9.54,2.94-15.75,7.65-15.75,12.62s6.24,9.71,15.81,12.64c-2.2,9.75-1.22,17.51,3.1,20a6.8,6.8,0,0,0,3.45.86c4.22,0,9.74-3,15.32-8.22,5.59,5.18,11.11,8.16,15.33,8.16a6.86,6.86,0,0,0,3.46-.86c4.31-2.49,5.28-10.23,3.05-20C310.59,85.32,316.8,80.6,316.8,75.63ZM297,65.37c-.57,2-1.28,4-2.08,6.08-.63-1.24-1.29-2.47-2-3.7s-1.46-2.43-2.22-3.6C292.84,64.47,295,64.87,297,65.37Zm-7,16.39c-1.2,2.08-2.43,4-3.71,5.88q-3.43.3-6.95.3c-2.33,0-4.65-.1-6.93-.29q-1.92-2.75-3.72-5.85c-1.17-2-2.23-4.06-3.2-6.12,1-2.06,2-4.13,3.18-6.14s2.43-4.05,3.71-5.88c2.29-.2,4.62-.31,7-.31s4.65.11,6.92.29c1.28,1.83,2.53,3.79,3.73,5.85s2.23,4.06,3.2,6.13C292.13,77.68,291.07,79.74,289.91,81.76Zm5-2A64.71,64.71,0,0,1,297,85.88c-2,.49-4.14.91-6.34,1.23.75-1.18,1.51-2.4,2.21-3.64S294.25,81,294.88,79.76Zm-15.6,16.42c-1.43-1.48-2.86-3.13-4.28-4.93,1.39.06,2.8.11,4.23.11s2.88,0,4.28-.11A60.86,60.86,0,0,1,279.28,96.18Zm-11.45-9.07c-2.19-.32-4.3-.72-6.31-1.21.57-2,1.28-4,2.08-6.08.63,1.23,1.29,2.46,2,3.69S267.07,85.94,267.83,87.11Zm11.37-32A63.24,63.24,0,0,1,283.48,60c-1.38-.06-2.8-.11-4.23-.11s-2.88,0-4.28.11A59,59,0,0,1,279.2,55.09Zm-11.39,9.06c-.75,1.19-1.51,2.4-2.21,3.65s-1.37,2.46-2,3.69a64.71,64.71,0,0,1-2.13-6.12C263.49,64.89,265.61,64.47,267.81,64.15ZM253.88,83.42c-5.44-2.32-9-5.37-9-7.79s3.53-5.48,9-7.79c1.33-.56,2.77-1.07,4.27-1.55a72.4,72.4,0,0,0,3.46,9.37A73.57,73.57,0,0,0,258.19,85C256.67,84.51,255.22,84,253.88,83.42Zm8.28,22c-2.09-1.2-3-5.77-2.29-11.65.17-1.44.45-3,.79-4.52a72.73,72.73,0,0,0,9.77,1.67,74.89,74.89,0,0,0,6.4,7.7c-5,4.66-9.73,7.22-12.93,7.22A3.79,3.79,0,0,1,262.16,105.41Zm36.51-11.72c.72,5.87-.17,10.45-2.25,11.66a3.39,3.39,0,0,1-1.77.4c-3.18,0-7.91-2.54-12.92-7.17a71.87,71.87,0,0,0,6.35-7.68,72.7,72.7,0,0,0,9.79-1.69A43.74,43.74,0,0,1,298.67,93.69Zm5.93-10.27A45.26,45.26,0,0,1,300.33,85a73.5,73.5,0,0,0-3.46-9.37,73,73,0,0,0,3.42-9.33c1.52.48,3,1,4.32,1.57,5.45,2.33,9,5.38,9,7.79S310,81.11,304.6,83.42Z"/><circle class="cls-8" cx="279.23" cy="75.63" r="7.03"/><path class="cls-9" d="M37.85,114.47,42.41,123a25.66,25.66,0,0,0,3.45,4.28,120.72,120.72,0,0,1,10.71,12.11C64.3,149.58,69.51,160.85,73.23,173a82.42,82.42,0,0,1,3.54,22.82c.38,23.09-7.54,42.93-23.51,59.41a68.2,68.2,0,0,1-8.38,7.17c-1.59,0-2.33-1.21-3-2.33a19.43,19.43,0,0,1-2.33-6.71,32,32,0,0,1-.74-8.47v-1.3c-.13-.28-1.53-128.51-1-129.16Z"/><path class="cls-10" d="M37.86,114.18c-.18-.37-.37-.09-.56.09a8.61,8.61,0,0,1-1.58,5.13,24.1,24.1,0,0,1-4.1,4.1A89.23,89.23,0,0,0,11.6,149,102.65,102.65,0,0,0,.06,190.73c-.46,5.31,1.68,24,3.35,29.43C8,234.5,16.17,246.52,26.79,257A104,104,0,0,0,35.07,264c.84,0,.93-.75,1.12-1.31a25.13,25.13,0,0,0,.84-3.63l1.87-14Z"/><path class="cls-11" d="M42.4,268.11a12.72,12.72,0,0,1,2.36-5.68A5.88,5.88,0,0,1,42.12,260a17.06,17.06,0,0,1-1.41-3.07c-1.32-3.91-1.6-8-2-12v-2.42c-.45.37-.54,3.54-.54,4a96.66,96.66,0,0,1-1.61,12.57,11.43,11.43,0,0,1-1.45,4.84,1.86,1.86,0,0,0,.09.65,57.33,57.33,0,0,1,2.33,15.09v1.87c0,2.23-.09,1.76,1.77,2.51a8.05,8.05,0,0,1,2.32.93c.56,0,.65-.47.65-.84L42,281.07V272.5a21.71,21.71,0,0,1,.38-4.38Z"/></g></g></svg>